<svg width="116" height="116" viewBox="0 0 116 116" fill="none" xmlns="http://www.w3.org/2000/svg">
    <rect width="116" height="116" rx="24" fill="url(#paint0_linear_361_2094)"/>
    <path d="M62.1621 90.2871C61.8887 90.2871 61.6738 90.209 61.5176 90.0527C61.3809 89.916 61.3027 89.7402 61.2832 89.5254C60.9121 85.8926 60.502 82.9043 60.0527 80.5605C59.6035 78.1973 58.9688 76.3125 58.1484 74.9062C57.3477 73.5 56.2246 72.4258 54.7793 71.6836C53.3535 70.9219 51.4785 70.3359 49.1543 69.9258C46.8496 69.4961 43.9395 69.0762 40.4238 68.666C40.209 68.6465 40.0332 68.5684 39.8965 68.4316C39.7598 68.2949 39.6914 68.1094 39.6914 67.875C39.6914 67.6602 39.7598 67.4844 39.8965 67.3477C40.0332 67.2109 40.209 67.1328 40.4238 67.1133C43.9395 66.8203 46.8691 66.4883 49.2129 66.1172C51.5566 65.7266 53.4512 65.1504 54.8965 64.3887C56.3613 63.6074 57.4941 62.4941 58.2949 61.0488C59.1152 59.6035 59.7402 57.6895 60.1699 55.3066C60.5996 52.9043 60.9707 49.8867 61.2832 46.2539C61.3027 46.0391 61.3809 45.8633 61.5176 45.7266C61.6738 45.5703 61.8887 45.4922 62.1621 45.4922C62.416 45.4922 62.6113 45.5703 62.748 45.7266C62.9043 45.8633 62.9824 46.0391 62.9824 46.2539C63.334 49.8867 63.7246 52.9043 64.1543 55.3066C64.584 57.6895 65.1992 59.6035 66 61.0488C66.8203 62.4941 67.9531 63.6074 69.3984 64.3887C70.8438 65.1504 72.7383 65.7266 75.082 66.1172C77.4258 66.4883 80.3652 66.8203 83.9004 67.1133C84.0957 67.1328 84.2617 67.2109 84.3984 67.3477C84.5352 67.4844 84.6035 67.6602 84.6035 67.875C84.6035 68.1094 84.5352 68.2949 84.3984 68.4316C84.2617 68.5684 84.0957 68.6465 83.9004 68.666C80.3652 68.959 77.4258 69.3008 75.082 69.6914C72.7383 70.0625 70.8438 70.6387 69.3984 71.4199C67.9531 72.1816 66.8203 73.2852 66 74.7305C65.1992 76.1758 64.584 78.0996 64.1543 80.502C63.7246 82.8848 63.334 85.8926 62.9824 89.5254C62.9824 89.7402 62.9043 89.916 62.748 90.0527C62.6113 90.209 62.416 90.2871 62.1621 90.2871ZM42.2695 57.0938C42.0547 57.0938 41.9277 56.9863 41.8887 56.7715C41.5566 54.7988 41.2637 53.2852 41.0098 52.2305C40.7559 51.1562 40.3652 50.3652 39.8379 49.8574C39.3105 49.3301 38.4902 48.9199 37.377 48.627C36.2832 48.334 34.7207 47.9824 32.6895 47.5723C32.4746 47.5332 32.3672 47.4062 32.3672 47.1914C32.3672 47.0156 32.4746 46.8984 32.6895 46.8398C34.7207 46.4492 36.2832 46.1074 37.377 45.8145C38.4902 45.502 39.3105 45.0918 39.8379 44.584C40.3652 44.0566 40.7559 43.2656 41.0098 42.2109C41.2637 41.1367 41.5566 39.6133 41.8887 37.6406C41.9277 37.4258 42.0547 37.3184 42.2695 37.3184C42.4648 37.3184 42.5918 37.4258 42.6504 37.6406C42.9629 39.6133 43.2461 41.1367 43.5 42.2109C43.7734 43.2852 44.1738 44.0859 44.7012 44.6133C45.248 45.1211 46.0684 45.5215 47.1621 45.8145C48.2754 46.0879 49.8281 46.4297 51.8203 46.8398C51.918 46.8594 51.9961 46.8984 52.0547 46.957C52.1328 47.0156 52.1719 47.0938 52.1719 47.1914C52.1719 47.4062 52.0547 47.5332 51.8203 47.5723C49.8281 47.9824 48.2754 48.334 47.1621 48.627C46.0684 48.9004 45.248 49.3008 44.7012 49.8281C44.1738 50.3359 43.7734 51.127 43.5 52.2012C43.2461 53.2754 42.9629 54.7988 42.6504 56.7715C42.6113 56.8887 42.5625 56.9766 42.5039 57.0352C42.4453 57.0742 42.3672 57.0938 42.2695 57.0938ZM56.9473 37.6113C56.6934 37.6113 56.5469 37.4844 56.5078 37.2305C56.3711 36.1172 56.2344 35.209 56.0977 34.5059C55.9609 33.7832 55.7168 33.2168 55.3652 32.8066C55.0137 32.3965 54.4668 32.0742 53.7246 31.8398C52.9824 31.6055 51.9277 31.4199 50.5605 31.2832C50.2871 31.2441 50.1504 31.0879 50.1504 30.8145C50.1504 30.5605 50.2871 30.4238 50.5605 30.4043C51.9277 30.2285 52.9824 30.0332 53.7246 29.8184C54.4668 29.584 55.0137 29.2617 55.3652 28.8516C55.7168 28.4219 55.9609 27.8555 56.0977 27.1523C56.2344 26.4297 56.3711 25.5215 56.5078 24.4277C56.5469 24.1543 56.6934 24.0176 56.9473 24.0176C57.2207 24.0176 57.377 24.1543 57.416 24.4277C57.5332 25.5215 57.6602 26.4297 57.7969 27.1523C57.9531 27.8555 58.207 28.4219 58.5586 28.8516C58.9102 29.2617 59.457 29.584 60.1992 29.8184C60.9414 30.0332 61.9961 30.2285 63.3633 30.4043C63.6172 30.4238 63.7441 30.5605 63.7441 30.8145C63.7441 31.0879 63.6172 31.2441 63.3633 31.2832C61.9961 31.4199 60.9414 31.6055 60.1992 31.8398C59.457 32.0742 58.9102 32.3965 58.5586 32.8066C58.207 33.2168 57.9531 33.7832 57.7969 34.5059C57.6602 35.209 57.5332 36.1172 57.416 37.2305C57.377 37.4844 57.2207 37.6113 56.9473 37.6113Z" fill="#E4A956"/>
    <defs>
    <linearGradient id="paint0_linear_361_2094" x1="-1.46031e-06" y1="116" x2="116" y2="-1.46031e-06" gradientUnits="userSpaceOnUse">
    <stop stop-color="#666460"/>
    <stop offset="1" stop-color="#454443"/>
    </linearGradient>
    </defs>
</svg>
    