<svg width="638" height="100" viewBox="0 0 638 100" fill="none" xmlns="http://www.w3.org/2000/svg">
    <path d="M128.796 69.28H135.036V36.58C131.556 42.1 126.216 47.38 119.676 47.38C112.836 47.38 111.696 42.64 111.696 38.02V27.34H105.756V26.62H122.316V27.34H116.676V38.8C116.676 42.34 117.096 45.94 121.416 45.94C129.756 45.94 135.696 34.96 139.416 25.9H140.016V69.28H145.956V70H128.796V69.28ZM169.526 50.02V53.68C169.586 55.72 170.666 57.94 171.746 60.04C172.826 62.32 173.966 64.54 173.966 66.7C173.966 70.18 171.866 70.66 170.126 70.66C166.886 70.66 165.506 68.62 165.446 64.54C160.166 70.06 156.566 70.66 154.226 70.66C149.546 70.66 147.446 67.96 147.446 64.54C147.446 60.76 150.146 58.24 153.746 56.44C151.226 54.16 149.906 51.4 149.906 48.46C149.906 44.14 153.266 40.42 159.206 40.42C164.246 40.42 169.526 42.46 169.526 50.02ZM165.446 53.08V50.02C165.446 44.26 164.066 41.2 158.846 41.2C153.986 41.2 150.626 44.38 150.626 48.46C150.626 51.34 151.826 53.86 154.406 56.14C157.586 54.7 161.186 53.8 165.446 53.08ZM161.306 60.16L161.066 60.88C158.606 59.8 156.686 58.78 155.126 57.64C153.266 59.08 152.186 61.06 152.186 63.76C152.186 67.42 154.286 68.74 156.806 68.74C159.686 68.74 163.526 65.56 165.446 63.46V53.8C161.726 54.46 158.246 55.48 155.726 57.22C157.226 58.24 159.026 59.2 161.306 60.16ZM169.526 57.46V65.92C169.526 67.42 169.886 69.22 171.446 69.22C172.346 69.22 173.246 68.62 173.246 66.7C173.246 63.76 171.086 60.46 169.526 57.46ZM175.974 83.32V82.6H180.714V64.9C176.514 58.84 175.974 50.02 175.974 42.88V41.92C176.454 41.98 177.474 42.04 177.954 42.04C180.654 42.04 182.874 41.14 184.794 40.3V44.2C186.714 42.46 189.654 40.42 193.854 40.42C199.614 40.42 206.574 43.9 206.574 55.48C206.574 63.76 201.594 70.54 192.474 70.66C189.354 70.66 186.894 69.94 184.794 68.68V82.6H189.534V83.32H175.974ZM184.794 45.04V67.84C186.834 69.16 189.354 69.94 192.474 69.94C198.054 69.94 201.834 64.54 201.834 55.66C201.834 46 198.174 41.5 192.474 41.5C189.174 41.5 186.894 43.3 184.794 45.04ZM180.714 63.64V42.58C179.574 42.88 177.474 42.88 176.694 42.76C176.694 49.84 177.114 57.94 180.714 63.64ZM219.705 61.18L211.125 41.86H207.585V41.14H220.485V41.86H215.685L222.705 58C224.025 56.62 225.465 55.18 227.025 53.74L227.505 54.22C225.885 55.78 224.385 57.34 223.005 58.72L226.245 66.22C229.365 58.78 232.065 50.08 234.405 41.86H229.545V41.14H239.085V41.86H235.185C229.485 61.3 221.865 84.1 212.745 84.1C210.645 84.1 209.265 82.6 209.265 80.02C209.265 76.24 212.085 69.7 219.705 61.18ZM224.145 71.14L220.005 61.96C212.685 70.18 209.985 76.42 209.985 80.02C209.985 82.24 211.005 83.38 212.745 83.38C216.765 83.38 220.605 78.28 224.145 71.14ZM239.842 70V69.28H244.582V41.86H239.842V41.14H245.722C248.362 46.36 251.242 50.14 254.122 52.66C255.082 45.52 260.062 40.42 267.922 40.42C275.962 40.42 281.902 46.06 281.902 55.6C281.902 65.14 275.962 70.66 267.922 70.66C257.482 70.66 253.942 62.32 253.942 55.18C253.942 54.58 253.942 54.04 254.002 53.44C252.202 52 250.402 49.96 248.662 47.56V69.28H253.402V70H239.842ZM267.922 69.94C272.602 69.94 277.162 66.64 277.162 55.6C277.162 51.88 276.622 48.94 275.782 46.84C275.842 47.26 275.842 47.62 275.842 48.04C275.842 52.6 272.182 57.7 264.862 57.7C262.822 57.7 260.722 57.34 258.682 56.44C258.922 66.76 263.302 69.94 267.922 69.94ZM258.682 55.6C260.722 56.62 262.762 56.98 264.862 56.98C271.702 56.98 275.122 52.36 275.122 48.04C275.122 46.06 274.462 44.26 273.142 43C271.582 41.68 269.782 41.14 267.922 41.14C263.242 41.14 258.682 44.5 258.682 55.6ZM285.251 70V69.28H289.991V41.86H285.251V41.14H298.211V41.86H294.071V69.28H306.611V41.86H302.471V41.14H314.891V41.86H310.691V69.28H323.291V41.86H319.151V41.14H332.111V41.86H327.371V69.28C331.451 69.52 333.011 71.62 333.011 74.32C333.011 77.62 330.071 81.82 325.211 81.82C322.511 81.82 319.511 80.56 316.511 79.24C313.811 78.04 311.171 76.96 308.951 76.96C306.131 76.96 304.151 78.76 303.371 81.58L302.651 81.34C303.971 77.38 305.831 73.54 310.631 73.54C313.091 73.54 315.251 74.56 317.651 75.76C322.031 77.8 324.371 78.94 326.831 78.94C330.611 78.94 332.291 76.6 332.291 74.32C332.291 71.74 330.671 70 326.771 70H285.251ZM333.709 69.28H338.449V41.86H333.709V41.14H366.049V41.86H361.309V69.28H366.049V70H333.709V69.28ZM342.529 65.5V69.28H357.229V46.66L342.529 65.5ZM342.529 41.86V64.12L357.229 45.28V41.86H342.529ZM393.484 51.34H374.464C374.344 52.42 374.284 53.5 374.284 54.7C374.284 67 379.264 69.94 383.284 69.94C390.964 69.94 395.524 62.26 395.524 53.62C395.524 51.82 395.284 49.9 394.804 48.04L395.524 47.8C396.004 49.72 396.244 51.82 396.244 53.62C396.244 62.62 391.444 70.66 383.284 70.66C377.224 70.66 369.544 66.94 369.544 55.54C369.544 47.08 374.464 40.42 382.624 40.42C390.064 40.42 393.424 46.06 393.484 51.34ZM382.144 41.14C378.424 41.14 375.484 44.86 374.584 50.62H388.984C388.924 45.52 386.884 41.14 382.144 41.14ZM434.869 70L435.349 66.04C429.949 70.42 424.249 70.84 421.129 70.84C407.749 70.84 400.189 61.54 400.189 48.7C400.189 38.68 405.769 25.66 421.189 25.66C425.569 25.66 430.669 27.04 434.929 30.7L434.689 26.62H435.409C435.589 29.68 435.829 32.56 436.069 35.32C436.309 38.14 436.549 41.2 436.729 44.38H436.009L435.109 32.98C430.909 27.88 425.509 26.38 421.249 26.38C409.789 26.38 405.649 36.76 405.649 48.34C405.649 63.4 412.669 70.12 421.489 70.12C427.849 70.12 433.129 66.64 435.649 63.76L437.689 48.34H438.409L435.589 70H434.869ZM441.756 70V69.28H446.496V41.86H441.756V41.14H455.316V41.86H450.576V54.04H453.396C454.056 54.04 454.776 54.04 455.616 54.16L464.556 41.86H460.296V41.14H469.836V41.86H465.516L456.396 54.34C457.476 54.52 458.676 55 459.936 55.78C460.236 55.72 460.536 55.72 460.896 55.72C466.716 55.72 472.476 60.04 472.476 66.82C472.476 70.18 471.036 71.8 468.636 71.8C465.216 71.8 462.996 69.1 461.316 64.78C458.796 58.54 459.036 58.48 457.656 56.98C453.756 58.18 450.636 62.08 450.576 69.28H455.316V70H441.756ZM460.896 56.44L461.076 56.56C463.896 58.48 465.696 62.74 467.076 66.52C467.976 68.92 468.576 70.72 469.776 70.72C470.976 70.72 471.816 68.98 471.816 66.82C471.816 60.52 466.296 56.44 460.896 56.44ZM450.576 54.76V63.94C451.776 59.92 454.296 57.46 457.236 56.38C456.216 55.18 454.956 54.76 453.036 54.76H450.576ZM496.713 50.02V53.68C496.773 55.72 497.853 57.94 498.933 60.04C500.013 62.32 501.153 64.54 501.153 66.7C501.153 70.18 499.053 70.66 497.313 70.66C494.073 70.66 492.693 68.62 492.633 64.54C487.353 70.06 483.753 70.66 481.413 70.66C476.733 70.66 474.633 67.96 474.633 64.54C474.633 60.76 477.333 58.24 480.933 56.44C478.413 54.16 477.093 51.4 477.093 48.46C477.093 44.14 480.453 40.42 486.393 40.42C491.433 40.42 496.713 42.46 496.713 50.02ZM492.633 53.08V50.02C492.633 44.26 491.253 41.2 486.033 41.2C481.173 41.2 477.813 44.38 477.813 48.46C477.813 51.34 479.013 53.86 481.593 56.14C484.773 54.7 488.373 53.8 492.633 53.08ZM488.493 60.16L488.253 60.88C485.793 59.8 483.873 58.78 482.313 57.64C480.453 59.08 479.373 61.06 479.373 63.76C479.373 67.42 481.473 68.74 483.993 68.74C486.873 68.74 490.713 65.56 492.633 63.46V53.8C488.913 54.46 485.433 55.48 482.913 57.22C484.413 58.24 486.213 59.2 488.493 60.16ZM496.713 57.46V65.92C496.713 67.42 497.073 69.22 498.633 69.22C499.533 69.22 500.433 68.62 500.433 66.7C500.433 63.76 498.273 60.46 496.713 57.46ZM505.921 54.28H505.201C505.201 53.68 505.261 52.6 505.801 41.14H506.521L506.461 43.6C509.401 41.08 512.581 40.36 515.041 40.36C522.181 40.36 525.721 43.3 525.721 47.2C525.721 50.98 522.901 53.32 518.881 54.04C523.201 54.76 528.001 57.64 528.001 63.64C528.001 71.2 521.821 74.74 514.741 74.74C507.541 74.74 503.701 69.88 503.701 64C503.701 59.92 505.561 55.36 509.641 51.64L510.121 52.12C506.221 55.78 504.421 60.16 504.421 64C504.421 69.52 507.961 74.02 514.741 74.02C520.201 74.02 523.261 69.34 523.261 63.58C523.261 55.84 518.641 54.58 514.561 54.58C513.961 54.58 512.461 54.7 511.501 54.88V53.68C512.521 53.8 513.901 53.86 515.161 53.86C516.361 53.86 517.561 53.62 518.341 53.2C520.801 51.94 521.101 49.24 521.101 47.44C521.101 42.46 517.861 41.08 514.921 41.08C509.941 41.08 507.361 44.26 506.341 45.7L505.921 54.28ZM531.112 70V69.28H535.852V41.86H531.112V41.14H544.672V41.86H539.932V54.04H542.752C543.412 54.04 544.132 54.04 544.972 54.16L553.912 41.86H549.652V41.14H559.192V41.86H554.872L545.752 54.34C546.832 54.52 548.032 55 549.292 55.78C549.592 55.72 549.892 55.72 550.252 55.72C556.072 55.72 561.832 60.04 561.832 66.82C561.832 70.18 560.392 71.8 557.992 71.8C554.572 71.8 552.352 69.1 550.672 64.78C548.152 58.54 548.392 58.48 547.012 56.98C543.112 58.18 539.992 62.08 539.932 69.28H544.672V70H531.112ZM550.252 56.44L550.432 56.56C553.252 58.48 555.052 62.74 556.432 66.52C557.332 68.92 557.932 70.72 559.132 70.72C560.332 70.72 561.172 68.98 561.172 66.82C561.172 60.52 555.652 56.44 550.252 56.44ZM539.932 54.76V63.94C541.132 59.92 543.652 57.46 546.592 56.38C545.572 55.18 544.312 54.76 542.392 54.76H539.932ZM562.87 69.28H567.61V41.86H562.87V41.14H595.21V41.86H590.47V69.28H595.21V70H562.87V69.28ZM571.69 65.5V69.28H586.39V46.66L571.69 65.5ZM571.69 41.86V64.12L586.39 45.28V41.86H571.69Z" fill="#E4A956"/>
    <path d="M64.513 12.0002C64.4075 11.9974 64.3039 12.028 64.2169 12.0876C64.1299 12.1472 64.064 12.2329 64.0286 12.3322L59.8118 24.1857L48.4505 18.7853C48.3573 18.7412 48.2527 18.7269 48.151 18.7445C48.0494 18.7621 47.9557 18.8107 47.8828 18.8836C47.8098 18.9566 47.7612 19.0503 47.7436 19.1519C47.726 19.2535 47.7403 19.3581 47.7845 19.4513L53.1849 30.8127L41.3313 35.0295C41.2344 35.0642 41.1505 35.1281 41.0912 35.2124C41.0319 35.2966 41.0001 35.3972 41.0001 35.5002C41.0001 35.6032 41.0319 35.7037 41.0912 35.788C41.1505 35.8722 41.2344 35.9361 41.3313 35.9709L52.3313 39.883C52.3937 39.9076 52.4604 39.9194 52.5275 39.9178C52.5945 39.9161 52.6605 39.9009 52.7216 39.8732C52.7827 39.8455 52.8375 39.8058 52.8829 39.7564C52.9283 39.7071 52.9634 39.6491 52.9859 39.5859C53.0084 39.5228 53.018 39.4557 53.0141 39.3888C53.0102 39.3218 52.9929 39.2563 52.9632 39.1962C52.9335 39.1361 52.8919 39.0826 52.8411 39.0388C52.7903 38.9951 52.7312 38.962 52.6673 38.9416L42.9915 35.5002L54.0423 31.5705C54.1081 31.547 54.1682 31.5099 54.2188 31.4617C54.2694 31.4135 54.3094 31.3552 54.336 31.2906C54.3627 31.226 54.3756 31.1565 54.3738 31.0866C54.3719 31.0168 54.3555 30.9481 54.3255 30.8849L49.2942 20.2951L59.8841 25.3264C59.9472 25.3564 60.0159 25.3728 60.0858 25.3746C60.1556 25.3764 60.2251 25.3636 60.2897 25.3369C60.3543 25.3102 60.4126 25.2703 60.4608 25.2197C60.509 25.1691 60.5461 25.109 60.5696 25.0431L64.4993 13.9924L68.429 25.0431C68.4525 25.109 68.4896 25.1691 68.5378 25.2197C68.586 25.2703 68.6443 25.3102 68.7089 25.3369C68.7735 25.3636 68.843 25.3764 68.9128 25.3746C68.9827 25.3728 69.0514 25.3564 69.1145 25.3264L79.7044 20.2951L74.6731 30.8849C74.6431 30.9481 74.6267 31.0168 74.6249 31.0866C74.6231 31.1565 74.6359 31.226 74.6626 31.2906C74.6893 31.3552 74.7292 31.4135 74.7798 31.4617C74.8304 31.5099 74.8905 31.547 74.9563 31.5705L86.0071 35.5002L74.9563 39.4299C74.8905 39.4534 74.8304 39.4905 74.7798 39.5387C74.7292 39.5869 74.6893 39.6452 74.6626 39.7098C74.6359 39.7744 74.6231 39.8438 74.6249 39.9137C74.6267 39.9836 74.6431 40.0523 74.6731 40.1154L79.7044 50.7053L69.1145 45.674C69.0514 45.644 68.9827 45.6276 68.9128 45.6257C68.843 45.6239 68.7735 45.6368 68.7089 45.6634C68.6443 45.6901 68.586 45.7301 68.5378 45.7807C68.4896 45.8313 68.4525 45.8914 68.429 45.9572L64.4993 57.008L61.0579 47.3322C61.0375 47.2683 61.0044 47.2092 60.9607 47.1584C60.9169 47.1076 60.8634 47.066 60.8033 47.0363C60.7432 47.0066 60.6777 46.9893 60.6107 46.9854C60.5438 46.9815 60.4767 46.9911 60.4136 47.0136C60.3504 47.0361 60.2924 47.0711 60.2431 47.1166C60.1937 47.162 60.154 47.2168 60.1263 47.2779C60.0986 47.339 60.0834 47.405 60.0817 47.472C60.0801 47.5391 60.0919 47.6058 60.1165 47.6681L64.0286 58.6681C64.0634 58.7651 64.1273 58.849 64.2115 58.9083C64.2958 58.9676 64.3963 58.9994 64.4993 58.9994C64.6023 58.9994 64.7028 58.9676 64.7871 58.9083C64.8714 58.849 64.9352 58.7651 64.97 58.6681L69.1868 46.8146L80.5481 52.215C80.6414 52.2592 80.7459 52.2735 80.8476 52.2559C80.9492 52.2383 81.0429 52.1897 81.1159 52.1167C81.1888 52.0438 81.2374 51.9501 81.255 51.8484C81.2726 51.7468 81.2583 51.6422 81.2142 51.549L75.8138 40.1877L87.6673 35.9709C87.7643 35.9361 87.8481 35.8722 87.9074 35.788C87.9667 35.7037 87.9985 35.6032 87.9985 35.5002C87.9985 35.3972 87.9667 35.2966 87.9074 35.2124C87.8481 35.1281 87.7643 35.0642 87.6673 35.0295L75.8138 30.8127L81.2142 19.4513C81.2583 19.3581 81.2726 19.2535 81.255 19.1519C81.2374 19.0503 81.1888 18.9566 81.1159 18.8836C81.0429 18.8107 80.9492 18.7621 80.8476 18.7445C80.7459 18.7269 80.6414 18.7412 80.5481 18.7853L69.1868 24.1857L64.97 12.3322C64.9362 12.2372 64.8744 12.1547 64.7929 12.0955C64.7113 12.0362 64.6138 12.003 64.513 12.0002ZM64.8685 32.006C64.0669 31.9986 63.2619 32.2913 62.6458 32.8849L38.345 56.2599C37.9555 56.0966 37.5393 56.0111 37.1224 56.0119C36.5843 56.013 36.1182 56.3492 35.6399 56.6232C35.5053 56.6206 35.3716 56.6453 35.2468 56.6956C35.1219 56.746 35.0085 56.821 34.9134 56.9162C34.2026 57.627 33.92 58.6058 34.0442 59.5392L15.5403 78.0451C15.4007 78.0264 15.261 78.006 15.1204 78.006C14.3197 78.0064 13.5184 78.3092 12.9134 78.9142V78.9162C11.7034 80.1262 11.7034 82.1183 12.9134 83.3283L16.6712 87.0861C17.8812 88.2961 19.8733 88.2961 21.0833 87.0861L21.0852 87.0842C21.7965 86.3729 22.0793 85.3932 21.9544 84.4592L40.4563 65.9553C41.3229 66.0717 42.2204 65.8244 42.9153 65.2209C42.976 65.1821 43.0323 65.137 43.0833 65.0861C43.0839 65.0861 43.0846 65.0861 43.0852 65.0861C44.007 64.1643 44.2222 62.7905 43.7395 61.6525L67.1145 37.3537C68.3015 36.1217 68.2837 34.1381 67.0735 32.9279V32.926H67.0716C66.4669 32.3213 65.6694 32.0134 64.8685 32.006ZM64.8489 33.9943C65.1403 33.9969 65.4304 34.1126 65.6575 34.34L65.6595 34.342C66.1153 34.7978 66.1221 35.503 65.6751 35.967C65.6744 35.967 65.6738 35.967 65.6731 35.967L42.4856 60.0724L39.927 57.5139L64.0325 34.3263C64.0325 34.3257 64.0325 34.325 64.0325 34.3244C64.2644 34.101 64.5575 33.9917 64.8489 33.9943ZM37.1243 57.9963C37.4072 57.9954 37.6904 58.1073 37.9134 58.3303L41.6712 62.0881C42.1172 62.534 42.1172 63.2241 41.6712 63.6701C41.6705 63.6708 41.6699 63.6714 41.6692 63.6721C41.2233 64.118 40.5312 64.118 40.0852 63.6721L36.3274 59.9142C35.8865 59.4733 35.8885 58.7942 36.3196 58.3478C36.3249 58.3433 36.3301 58.3388 36.3352 58.3342C36.5597 58.1098 36.8415 57.9972 37.1243 57.9963ZM34.9993 61.4142L38.5852 64.9982V65.0002L20.9993 82.5861L17.4134 79.0002L34.9993 61.4142ZM61.4895 62.0002C61.392 62.0021 61.297 62.0325 61.2165 62.0877C61.136 62.1428 61.0734 62.2204 61.0364 62.3107L59.3665 66.3674L55.3099 68.0373C55.2179 68.0749 55.1393 68.1389 55.0839 68.2214C55.0285 68.3038 54.999 68.4009 54.999 68.5002C54.999 68.5995 55.0285 68.6965 55.0839 68.779C55.1393 68.8614 55.2179 68.9255 55.3099 68.9631L59.3665 70.633L61.0364 74.6896C61.074 74.7816 61.1381 74.8602 61.2205 74.9156C61.303 74.971 61.4 75.0005 61.4993 75.0005C61.5986 75.0005 61.6957 74.971 61.7781 74.9156C61.8606 74.8602 61.9246 74.7816 61.9622 74.6896L63.6321 70.633L67.6888 68.9631C67.7807 68.9255 67.8594 68.8614 67.9147 68.779C67.9701 68.6965 67.9997 68.5995 67.9997 68.5002C67.9997 68.4009 67.9701 68.3038 67.9147 68.2214C67.8594 68.1389 67.7807 68.0749 67.6888 68.0373L63.6321 66.3674L61.9622 62.3107C61.924 62.2173 61.8584 62.1376 61.774 62.0822C61.6896 62.0268 61.5905 61.9982 61.4895 62.0002ZM61.4993 63.8146L62.7864 66.9396C62.8116 67.0011 62.8487 67.0569 62.8956 67.1039C62.9426 67.1508 62.9984 67.1879 63.0599 67.2131L66.1849 68.5002L63.0599 69.7873C62.9984 69.8124 62.9426 69.8496 62.8956 69.8965C62.8487 69.9435 62.8116 69.9993 62.7864 70.0607L61.4993 73.1857L60.2122 70.0607C60.1871 69.9993 60.1499 69.9435 60.103 69.8965C60.056 69.8496 60.0002 69.8124 59.9388 69.7873L56.8138 68.5002L59.9388 67.2131C60.0002 67.1879 60.056 67.1508 60.103 67.1039C60.1499 67.0569 60.1871 67.0011 60.2122 66.9396L61.4993 63.8146ZM77.4895 69.0002C77.392 69.0021 77.297 69.0325 77.2165 69.0877C77.136 69.1428 77.0734 69.2204 77.0364 69.3107L74.4915 75.4924L68.3099 78.0373C68.2179 78.0749 68.1393 78.1389 68.0839 78.2214C68.0285 78.3038 67.999 78.4009 67.999 78.5002C67.999 78.5995 68.0285 78.6965 68.0839 78.779C68.1393 78.8614 68.2179 78.9255 68.3099 78.9631L74.4915 81.508L77.0364 87.6896C77.074 87.7816 77.1381 87.8602 77.2205 87.9156C77.303 87.9709 77.4 88.0005 77.4993 88.0005C77.5986 88.0005 77.6957 87.9709 77.7781 87.9156C77.8606 87.8602 77.9246 87.7816 77.9622 87.6896L80.5071 81.508L86.6888 78.9631C86.7807 78.9255 86.8594 78.8614 86.9147 78.779C86.9701 78.6965 86.9997 78.5995 86.9997 78.5002C86.9997 78.4009 86.9701 78.3038 86.9147 78.2214C86.8594 78.1389 86.7807 78.0749 86.6888 78.0373L80.5071 75.4924L77.9622 69.3107C77.924 69.2173 77.8584 69.1376 77.774 69.0822C77.6896 69.0268 77.5905 68.9982 77.4895 69.0002ZM77.4993 70.8146L79.6614 76.0646C79.6866 76.1261 79.7237 76.1819 79.7706 76.2289C79.8176 76.2758 79.8734 76.3129 79.9349 76.3381L85.1849 78.5002L79.9349 80.6623C79.8734 80.6874 79.8176 80.7246 79.7706 80.7715C79.7237 80.8184 79.6866 80.8743 79.6614 80.9357L77.4993 86.1857L75.3372 80.9357C75.3121 80.8743 75.2749 80.8184 75.228 80.7715C75.181 80.7246 75.1252 80.6874 75.0638 80.6623L69.8138 78.5002L75.0638 76.3381C75.1252 76.3129 75.181 76.2758 75.228 76.2289C75.2749 76.1819 75.3121 76.1261 75.3372 76.0646L77.4993 70.8146ZM15.1204 79.9943C15.4052 79.9941 15.6907 80.1056 15.9134 80.3283L19.6712 84.0861C20.1172 84.5321 20.1172 85.2241 19.6712 85.6701L19.6692 85.6721C19.2233 86.118 18.5312 86.118 18.0852 85.6721L14.3274 81.9142C13.8815 81.4683 13.8815 80.7762 14.3274 80.3303H14.3294C14.5524 80.1073 14.8356 79.9945 15.1204 79.9943Z" fill="#E4A956"/>
    </svg>
    