<svg width="15" height="15" viewBox="0 0 15 15" fill="none" xmlns="http://www.w3.org/2000/svg">
    <path d="M7.1543 14.2998C6.98438 14.2998 6.83789 14.2412 6.71485 14.1241C6.5918 14.0127 6.51563 13.8692 6.48633 13.6934C6.33985 12.7618 6.1875 11.9795 6.0293 11.3467C5.8711 10.7139 5.66602 10.1953 5.41406 9.79106C5.16797 9.38676 4.8457 9.06446 4.44727 8.82426C4.04883 8.57816 3.53906 8.38186 2.91797 8.23536C2.30274 8.08296 1.53809 7.94526 0.62403 7.82226C0.44238 7.79886 0.29297 7.72556 0.17578 7.60256C0.0586001 7.47366 0 7.32126 0 7.14546C0 6.96976 0.0586001 6.82026 0.17578 6.69726C0.29297 6.56836 0.44531 6.49216 0.63281 6.46876C1.54102 6.36916 2.30567 6.24906 2.92676 6.10836C3.55371 5.96776 4.06934 5.77446 4.47363 5.52836C4.87793 5.27636 5.20606 4.94526 5.45801 4.53516C5.70996 4.12496 5.91211 3.60056 6.06445 2.96191C6.2168 2.32324 6.35742 1.53515 6.48633 0.59765C6.51563 0.42187 6.5918 0.27832 6.71485 0.16699C6.83789 0.0556603 6.98438 0 7.1543 0C7.32422 0 7.47075 0.0556603 7.59375 0.16699C7.71675 0.27832 7.79295 0.42187 7.82225 0.59765C7.96285 1.53515 8.11235 2.32324 8.27055 2.96191C8.42875 3.59476 8.63085 4.11616 8.87695 4.52636C9.12895 4.93066 9.45415 5.25586 9.85255 5.50196C10.2569 5.74806 10.7667 5.94436 11.3819 6.09086C12.003 6.23146 12.7706 6.35746 13.6846 6.46876C13.8663 6.49806 14.0157 6.57716 14.1329 6.70606C14.2501 6.82906 14.3085 6.97556 14.3085 7.14546C14.3085 7.32126 14.2501 7.47366 14.1329 7.60256C14.0157 7.73146 13.8633 7.80466 13.6758 7.82226C12.7676 7.92186 12.0001 8.04496 11.3731 8.19136C10.752 8.33206 10.2364 8.52536 9.82615 8.77146C9.42185 9.01176 9.09665 9.33986 8.85055 9.75586C8.60445 10.1661 8.40235 10.6905 8.24415 11.3291C8.09175 11.9737 7.95115 12.7618 7.82225 13.6934C7.79295 13.8692 7.71675 14.0127 7.59375 14.1241C7.47655 14.2412 7.33005 14.2998 7.1543 14.2998Z" fill="#E4A956"/>
</svg>
    