<svg width="71" height="70" viewBox="0 0 71 70" fill="none" xmlns="http://www.w3.org/2000/svg">
<path d="M33.2783 0.683594C33.2783 0.683594 32.1846 2.10205 31.6377 4.2041C31.313 5.52002 31.2788 7.26318 31.8086 9.04053C20.085 10.7153 10.9761 20.2173 9.62598 32.0605C6.94287 33.5303 4.875 36.0767 4.875 39.375C4.875 43.5962 7.8999 47.1509 11.916 47.9541L12.0527 47.9883H12.2236C12.5654 48.0054 12.856 48.0225 13.1807 48.0396C17.7266 55.7983 25.8613 61.25 35.5 61.25C45.0874 61.25 53.2393 55.8667 57.8022 48.1592C58.2124 48.1079 58.5884 48.0396 59.0498 47.9712H59.084L59.1011 47.9541C63.1001 47.1509 66.125 43.5962 66.125 39.375C66.125 36.0767 64.0571 33.5303 61.3911 32.0605C59.9214 19.2773 49.4282 9.22852 36.3716 8.78418C35.5854 7.45117 35.6196 6.30615 35.876 5.28076C36.1836 4.08447 36.7647 3.33252 36.7647 3.33252L33.2783 0.683594ZM35.5 13.125C47.0698 13.125 56.4692 22.063 57.2896 33.4106L57.3921 34.8633L58.7593 35.3247C60.5195 35.9229 61.75 37.4609 61.75 39.375C61.75 41.5112 60.229 43.2715 58.2466 43.6646C57.6484 43.7671 57.1016 43.8354 56.5205 43.938L55.4097 44.0918L54.9141 45.083C51.2568 52.0898 43.9595 56.875 35.5 56.875C26.9722 56.875 19.6235 52.0044 16.0176 44.9121L15.4365 43.7671L14.1719 43.7158C13.7104 43.6816 13.2319 43.6646 12.7363 43.6475C10.7539 43.2202 9.25 41.4941 9.25 39.375C9.25 37.4609 10.4805 35.9229 12.2407 35.3247L13.5908 34.8633L13.7104 33.4106C14.5308 22.063 23.9302 13.125 35.5 13.125ZM28.9375 30.625C27.7241 30.625 26.75 31.5991 26.75 32.8125C26.75 34.0259 27.7241 35 28.9375 35C30.1509 35 31.125 34.0259 31.125 32.8125C31.125 31.5991 30.1509 30.625 28.9375 30.625ZM42.0625 30.625C40.8491 30.625 39.875 31.5991 39.875 32.8125C39.875 34.0259 40.8491 35 42.0625 35C43.2759 35 44.25 34.0259 44.25 32.8125C44.25 31.5991 43.2759 30.625 42.0625 30.625ZM29.3135 41.1865L26.2202 44.2798C31.3301 49.3896 39.6699 49.3896 44.7798 44.2798L41.6865 41.1865C38.2515 44.6216 32.7485 44.6216 29.3135 41.1865Z" fill="#666460"/>
</svg>
