<svg width="71" height="70" viewBox="0 0 71 70" fill="none" xmlns="http://www.w3.org/2000/svg">
<path d="M33.3125 4.375C17.624 4.375 4.875 17.124 4.875 32.8125C4.875 48.501 17.624 61.25 33.3125 61.25C49.001 61.25 61.75 48.501 61.75 32.8125V30.625H57.375V32.8125C57.375 46.1255 46.6255 56.875 33.3125 56.875C19.9995 56.875 9.25 46.1255 9.25 32.8125C9.25 19.4995 19.9995 8.75 33.3125 8.75C40.4902 8.75 46.8647 11.9116 51.2739 16.8848L46.2837 21.875H61.75V6.40869L54.3672 13.7915C49.1548 8.03223 41.6694 4.375 33.3125 4.375ZM31.125 13.125V30.625H22.375V35H35.5V13.125H31.125Z" fill="#666460"/>
</svg>
