<svg width="71" height="70" viewBox="0 0 71 70" fill="none" xmlns="http://www.w3.org/2000/svg">
<g clip-path="url(#clip0_250_36)">
<path d="M18 17.5C8.36133 17.5 0.5 25.3613 0.5 35C0.5 44.6387 8.36133 52.5 18 52.5C18.1538 52.5 18.2905 52.5 18.4443 52.4658C18.4443 52.4658 18.4614 52.4658 18.4614 52.4487C24.7163 52.2437 29.5698 47.8516 32.834 43.6304C31.7915 42.041 30.9883 40.6055 30.4072 39.5117C27.707 43.4595 23.3833 48.125 18 48.125C10.7197 48.125 4.875 42.2803 4.875 35C4.875 27.7197 10.7197 21.875 18 21.875C22.563 21.875 26.4082 25.1221 29.1939 28.6768C31.9795 32.2485 33.4834 35.8374 33.4834 35.8374C33.5859 36.0767 33.7227 36.2817 33.8936 36.4697C34.1328 37.0337 35.5 40.2295 38.4565 43.9893C41.6694 48.0737 46.523 52.5 52.9487 52.5C62.5874 52.5 70.4829 44.6899 70.5 35.0342C70.5171 25.3955 62.6899 17.5 53.0513 17.5C52.8804 17.5 52.7266 17.5171 52.5898 17.5342C46.3691 17.7563 41.5156 22.1143 38.2344 26.3184C39.2769 27.9248 40.063 29.3604 40.627 30.4712C43.3442 26.5405 47.6851 21.875 53.0513 21.875C60.3145 21.875 66.1421 27.7539 66.125 35.0342C66.1079 42.3145 60.2461 48.125 52.9487 48.125C48.5908 48.125 44.7114 44.8779 41.8916 41.2891C39.0889 37.7002 37.5166 34.0942 37.5166 34.0942C37.4141 33.8721 37.2773 33.667 37.1065 33.4961C36.8672 32.915 35.5684 29.7534 32.646 26.0107C29.4502 21.9092 24.5625 17.5 18 17.5Z" fill="#666460"/>
</g>
<defs>
<clipPath id="clip0_250_36">
<rect width="70" height="70" fill="white" transform="translate(0.5)"/>
</clipPath>
</defs>
</svg>
