<svg width="71" height="70" viewBox="0 0 71 70" fill="none" xmlns="http://www.w3.org/2000/svg">
<path d="M13.625 4.375V8.75H9.25V13.125H13.625V17.5H18V13.125H22.375V8.75H18V4.375H13.625ZM46.4033 8.75C46.0024 8.75665 45.6111 8.87335 45.272 9.08733C44.933 9.30132 44.6592 9.60437 44.4807 9.96338L41.4644 15.9961L39.2341 13.7659C39.027 13.5586 38.7803 13.3951 38.5088 13.285C38.2372 13.1749 37.9463 13.1205 37.6533 13.125C37.0791 13.134 36.5315 13.3685 36.1286 13.7777C35.7258 14.187 35.5 14.7382 35.5 15.3125V21.875H28.9375C18.0907 21.875 9.25 30.7157 9.25 41.5625C9.25 52.4093 18.0907 61.25 28.9375 61.25C39.7843 61.25 48.625 52.4093 48.625 41.5625V35H55.1875C55.6201 34.9998 56.0428 34.8714 56.4025 34.6311C56.7621 34.3907 57.0423 34.0491 57.2078 33.6494C57.3734 33.2498 57.4167 32.8101 57.3324 32.3858C57.2481 31.9616 57.0399 31.5718 56.7341 31.2659L54.5039 29.0356L60.5366 26.0193C60.8469 25.8646 61.116 25.6384 61.3217 25.3594C61.5274 25.0803 61.6638 24.7563 61.7198 24.4141C61.7757 24.072 61.7495 23.7214 61.6433 23.3914C61.5371 23.0613 61.354 22.7613 61.1091 22.5159L47.9841 9.39087C47.777 9.18363 47.5303 9.02011 47.2588 8.91002C46.9872 8.79993 46.6963 8.74551 46.4033 8.75ZM47.0356 14.6289L55.8711 23.4644L51.2483 25.78L44.72 19.2517L47.0356 14.6289ZM39.875 20.5933L49.9067 30.625H46.4375C45.8574 30.6251 45.301 30.8555 44.8908 31.2658C44.4805 31.676 44.2501 32.2324 44.25 32.8125V41.5625C44.25 43.9024 43.6941 46.0939 42.7632 48.0737C42.1264 46.3403 41.2023 44.5475 39.7639 43.1091C36.153 39.5008 32.0312 39.375 28.9375 39.375C25.8438 39.375 23.7819 39.5001 21.2043 36.9226C19.9023 35.6231 18.9494 32.5724 18.4614 30.437C21.1996 27.8589 24.8631 26.25 28.9375 26.25H37.6875C38.2676 26.2499 38.824 26.0195 39.2342 25.6092C39.6445 25.199 39.8749 24.6426 39.875 24.0625V20.5933ZM15.1118 35.0513C15.7486 36.7834 16.6705 38.5781 18.1111 40.0159C21.7198 43.6246 25.8438 43.75 28.9375 43.75C32.0285 43.75 34.094 43.6313 36.6707 46.2024C37.9692 47.5009 38.9293 50.5513 39.4221 52.688C36.6834 55.2688 33.0142 56.875 28.9375 56.875C20.4555 56.875 13.625 50.0445 13.625 41.5625C13.625 39.2226 14.1809 37.0311 15.1118 35.0513ZM57.375 48.125V52.5H53V56.875H57.375V61.25H61.75V56.875H66.125V52.5H61.75V48.125H57.375Z" fill="#666460"/>
</svg>
