<svg width="71" height="70" viewBox="0 0 71 70" fill="none" xmlns="http://www.w3.org/2000/svg">
<path d="M33.3125 4.375C17.6328 4.375 4.875 17.1328 4.875 32.8125C4.875 48.4922 17.6328 61.25 33.3125 61.25C48.9922 61.25 61.75 48.4922 61.75 32.8125C61.75 17.1328 48.9922 4.375 33.3125 4.375ZM33.3125 8.75C46.6278 8.75 57.375 19.4972 57.375 32.8125C57.375 46.1278 46.6278 56.875 33.3125 56.875C19.9972 56.875 9.25 46.1278 9.25 32.8125C9.25 19.4972 19.9972 8.75 33.3125 8.75ZM33.3125 13.125C32.7323 13.125 32.1759 13.3555 31.7657 13.7657C31.3555 14.1759 31.125 14.7323 31.125 15.3125C31.125 15.8927 31.3555 16.4491 31.7657 16.8593C32.1759 17.2695 32.7323 17.5 33.3125 17.5C33.8927 17.5 34.4491 17.2695 34.8593 16.8593C35.2695 16.4491 35.5 15.8927 35.5 15.3125C35.5 14.7323 35.2695 14.1759 34.8593 13.7657C34.4491 13.3555 33.8927 13.125 33.3125 13.125ZM46.3948 17.4829C45.8271 17.4987 45.2878 17.7347 44.8909 18.1409L31.7659 31.2659C31.5559 31.4674 31.3883 31.7089 31.2729 31.976C31.1574 32.2432 31.0964 32.5307 31.0934 32.8217C31.0905 33.1127 31.1456 33.4014 31.2556 33.6709C31.3656 33.9403 31.5283 34.1851 31.7341 34.3909C31.9399 34.5967 32.1847 34.7594 32.4541 34.8694C32.7236 34.9794 33.0123 35.0345 33.3033 35.0316C33.5943 35.0286 33.8818 34.9676 34.149 34.8521C34.4161 34.7367 34.6576 34.5691 34.8591 34.3591L47.9841 21.2341C48.2987 20.9266 48.5132 20.5314 48.5997 20.1001C48.6863 19.6688 48.6407 19.2214 48.4691 18.8163C48.2975 18.4113 48.0078 18.0674 47.6377 17.8295C47.2677 17.5916 46.8345 17.4708 46.3948 17.4829ZM20.1875 17.5C19.6073 17.5 19.0509 17.7305 18.6407 18.1407C18.2305 18.5509 18 19.1073 18 19.6875C18 20.2677 18.2305 20.8241 18.6407 21.2343C19.0509 21.6445 19.6073 21.875 20.1875 21.875C20.7677 21.875 21.3241 21.6445 21.7343 21.2343C22.1445 20.8241 22.375 20.2677 22.375 19.6875C22.375 19.1073 22.1445 18.5509 21.7343 18.1407C21.3241 17.7305 20.7677 17.5 20.1875 17.5ZM15.8125 30.625C15.2323 30.625 14.6759 30.8555 14.2657 31.2657C13.8555 31.6759 13.625 32.2323 13.625 32.8125C13.625 33.3927 13.8555 33.9491 14.2657 34.3593C14.6759 34.7695 15.2323 35 15.8125 35C16.3927 35 16.9491 34.7695 17.3593 34.3593C17.7695 33.9491 18 33.3927 18 32.8125C18 32.2323 17.7695 31.6759 17.3593 31.2657C16.9491 30.8555 16.3927 30.625 15.8125 30.625ZM50.8125 30.625C50.2323 30.625 49.6759 30.8555 49.2657 31.2657C48.8555 31.6759 48.625 32.2323 48.625 32.8125C48.625 33.3927 48.8555 33.9491 49.2657 34.3593C49.6759 34.7695 50.2323 35 50.8125 35C51.3927 35 51.9491 34.7695 52.3593 34.3593C52.7695 33.9491 53 33.3927 53 32.8125C53 32.2323 52.7695 31.6759 52.3593 31.2657C51.9491 30.8555 51.3927 30.625 50.8125 30.625ZM20.1875 43.75C19.6073 43.75 19.0509 43.9805 18.6407 44.3907C18.2305 44.8009 18 45.3573 18 45.9375C18 46.5177 18.2305 47.0741 18.6407 47.4843C19.0509 47.8945 19.6073 48.125 20.1875 48.125C20.7677 48.125 21.3241 47.8945 21.7343 47.4843C22.1445 47.0741 22.375 46.5177 22.375 45.9375C22.375 45.3573 22.1445 44.8009 21.7343 44.3907C21.3241 43.9805 20.7677 43.75 20.1875 43.75ZM46.4375 43.75C45.8573 43.75 45.3009 43.9805 44.8907 44.3907C44.4805 44.8009 44.25 45.3573 44.25 45.9375C44.25 46.5177 44.4805 47.0741 44.8907 47.4843C45.3009 47.8945 45.8573 48.125 46.4375 48.125C47.0177 48.125 47.5741 47.8945 47.9843 47.4843C48.3945 47.0741 48.625 46.5177 48.625 45.9375C48.625 45.3573 48.3945 44.8009 47.9843 44.3907C47.5741 43.9805 47.0177 43.75 46.4375 43.75ZM26.75 48.125V52.5H39.875V48.125H26.75Z" fill="#666460"/>
</svg>
