<svg width="71" height="70" viewBox="0 0 71 70" fill="none" xmlns="http://www.w3.org/2000/svg">
<path d="M28.9375 9.29688C25.339 9.29688 22.375 12.2609 22.375 15.8594C22.375 18.5405 24.021 20.8618 26.3484 21.875H24.5625C20.9639 21.875 18 24.8389 18 28.4375V40.8276L20.8284 43.656L22.375 45.2026V61.25H26.75V43.3911L23.9216 40.5627L22.375 39.0161V28.4375C22.375 27.2061 23.3311 26.25 24.5625 26.25H52.3762C52.0734 27.484 51.899 29.0436 51.3936 29.7107C50.981 30.2551 50.5279 30.7067 50.0349 31.2744C49.5419 31.8422 48.8854 32.6317 48.7532 33.8464C48.4803 36.3698 48.532 38.5478 47.3433 39.6143C46.5859 40.2937 45.6675 40.7253 44.7114 41.0754C43.7586 41.4243 42.8694 41.5207 41.7292 42.2888C40.6699 42.9983 40.614 43.4223 40.157 44.0405C39.7 44.6588 39.1817 45.3669 38.6189 46.0144C37.4933 47.3093 36.27 48.125 35.5 48.125V30.625H31.125V61.25H35.5V52.5C38.4532 52.5 40.4835 50.535 41.9172 48.8855C42.6341 48.0608 43.2225 47.2507 43.6689 46.6467C43.9411 46.2785 44.2508 45.9748 44.344 45.8606C44.3892 45.8715 45.1287 45.5835 46.2153 45.1855C47.4008 44.7514 48.8967 44.098 50.2656 42.8699C53.2675 40.1769 52.9295 36.2786 53.094 34.4617C53.1164 34.4287 53.1756 34.3271 53.3333 34.1455C53.6581 33.7714 54.2544 33.1851 54.8799 32.3596C56.1308 30.7088 57.375 28.0535 57.375 24.0625V21.875H31.5266C33.854 20.8618 35.5 18.5405 35.5 15.8594C35.5 12.2609 32.536 9.29688 28.9375 9.29688ZM28.9375 13.6719C30.1715 13.6719 31.125 14.6253 31.125 15.8594C31.125 17.0934 30.1715 18.0469 28.9375 18.0469C27.7035 18.0469 26.75 17.0934 26.75 15.8594C26.75 14.6253 27.7035 13.6719 28.9375 13.6719Z" fill="#666460"/>
</svg>
